<svg width="200" height="29" viewBox="0 0 200 29" fill="none" xmlns="http://www.w3.org/2000/svg">
<circle cx="14.5" cy="14.5" r="14.5" fill="#1C2E6A"/>
<path d="M14.6273 12.1955V13.0895H12.0093V12.1955H14.6273ZM12.0093 14.8776V13.9836H14.6273V14.8776H12.0093ZM12.0093 16.6657V15.7716H13.7546V16.6657H12.0093ZM11.1366 12.1955V13.0895H10.2639V12.1955H11.1366ZM11.1366 13.9836V14.8776H10.2639V13.9836H11.1366ZM10.2639 16.6657V15.7716H11.1366V16.6657H10.2639ZM9.39121 9.51342V22.0299H13.7546V22.9239H8.51852V8.61938H16.1204L19.8634 12.4539V13.9836H18.9907V13.0895H15.5V9.51342H9.39121ZM16.3727 10.149V12.1955H18.3703L16.3727 10.149ZM20.7361 15.7716H22.4815V22.9239H14.6273V15.7716H16.3727V14.8776H17.2454V15.7716H19.8634V14.8776H20.7361V15.7716ZM21.6088 22.0299V18.4537H15.5V22.0299H21.6088ZM21.6088 17.5597V16.6657H15.5V17.5597H21.6088Z" fill="#F6F6F6"/>
<path d="M44.184 17.576C44.184 18.376 43.656 18.792 42.744 18.792H40.728V16.312H42.712C43.624 16.312 44.184 16.776 44.184 17.576ZM43.912 13.144C43.912 13.912 43.416 14.312 42.52 14.312H40.728V11.96H42.52C43.416 11.96 43.912 12.376 43.912 13.144ZM46.952 17.944C46.952 16.664 46.104 15.512 44.792 15.24C45.88 14.92 46.696 14.04 46.696 12.68C46.696 10.904 45.336 9.768 43.048 9.768H37.992V21H43.224C45.592 21 46.952 19.8 46.952 17.944ZM57.2749 16.536C57.2749 13.704 55.2589 11.944 52.6349 11.944C50.0269 11.944 47.9949 13.704 47.9949 16.536C47.9949 19.368 49.9789 21.128 52.6029 21.128C55.2269 21.128 57.2749 19.368 57.2749 16.536ZM50.7789 16.536C50.7789 15.016 51.6429 14.312 52.6349 14.312C53.5949 14.312 54.4909 15.016 54.4909 16.536C54.4909 18.04 53.5789 18.76 52.6029 18.76C51.6109 18.76 50.7789 18.04 50.7789 16.536ZM67.4624 16.536C67.4624 13.704 65.4464 11.944 62.8224 11.944C60.2144 11.944 58.1824 13.704 58.1824 16.536C58.1824 19.368 60.1664 21.128 62.7904 21.128C65.4144 21.128 67.4624 19.368 67.4624 16.536ZM60.9664 16.536C60.9664 15.016 61.8304 14.312 62.8224 14.312C63.7824 14.312 64.6784 15.016 64.6784 16.536C64.6784 18.04 63.7664 18.76 62.7904 18.76C61.7984 18.76 60.9664 18.04 60.9664 16.536ZM68.9139 21H71.6499V17.256L74.3699 21H77.7619L74.0179 16.552L77.7299 12.072H74.3539L71.6499 15.704V9.16H68.9139V21ZM88.1311 13.416C88.1311 14.296 87.6511 14.824 86.6271 14.824H84.9311V12.04H86.6271C87.6511 12.04 88.1311 12.584 88.1311 13.416ZM82.1951 9.768V21H84.9311V16.76H85.5871L87.9231 21H91.0111L88.4191 16.552C90.1471 16.04 90.9151 14.712 90.9151 13.304C90.9151 11.352 89.5391 9.768 86.7871 9.768H82.1951ZM96.5686 14.136C97.4806 14.136 98.2486 14.696 98.2486 15.672H94.8246C94.9846 14.68 95.6726 14.136 96.5686 14.136ZM100.841 18.04H97.9286C97.7046 18.52 97.2726 18.904 96.5046 18.904C95.6246 18.904 94.9046 18.36 94.8086 17.192H101.001C101.033 16.92 101.049 16.648 101.049 16.392C101.049 13.672 99.2086 11.944 96.6006 11.944C93.9446 11.944 92.0886 13.704 92.0886 16.536C92.0886 19.368 93.9766 21.128 96.6006 21.128C98.8246 21.128 100.409 19.784 100.841 18.04ZM109.74 18.408C109.692 15.08 104.86 16.088 104.86 14.664C104.86 14.232 105.212 13.976 105.852 13.976C106.62 13.976 107.084 14.376 107.164 14.984H109.692C109.516 13.224 108.236 11.944 105.932 11.944C103.596 11.944 102.3 13.192 102.3 14.712C102.3 17.992 107.164 16.952 107.164 18.392C107.164 18.792 106.796 19.112 106.092 19.112C105.34 19.112 104.78 18.696 104.716 18.072H102.012C102.14 19.8 103.74 21.128 106.124 21.128C108.364 21.128 109.74 19.96 109.74 18.408ZM115.35 14.136C116.262 14.136 117.03 14.696 117.03 15.672H113.606C113.766 14.68 114.454 14.136 115.35 14.136ZM119.622 18.04H116.71C116.486 18.52 116.054 18.904 115.286 18.904C114.406 18.904 113.686 18.36 113.59 17.192H119.782C119.814 16.92 119.83 16.648 119.83 16.392C119.83 13.672 117.99 11.944 115.382 11.944C112.726 11.944 110.87 13.704 110.87 16.536C110.87 19.368 112.758 21.128 115.382 21.128C117.606 21.128 119.19 19.784 119.622 18.04ZM124.009 16.856C124.009 15.32 124.761 14.872 126.057 14.872H126.809V11.976C125.609 11.976 124.633 12.616 124.009 13.56V12.072H121.273V21H124.009V16.856ZM127.269 12.072L130.437 21H133.813L136.981 12.072H134.069L132.133 18.44L130.197 12.072H127.269ZM137.589 16.52C137.589 19.336 139.333 21.128 141.509 21.128C142.837 21.128 143.781 20.52 144.277 19.736V21H147.013V12.072H144.277V13.336C143.797 12.552 142.853 11.944 141.525 11.944C139.333 11.944 137.589 13.704 137.589 16.52ZM144.277 16.536C144.277 17.96 143.365 18.744 142.325 18.744C141.301 18.744 140.373 17.944 140.373 16.52C140.373 15.096 141.301 14.328 142.325 14.328C143.365 14.328 144.277 15.112 144.277 16.536ZM149.424 17.896C149.424 20.216 150.72 21 152.576 21H153.968V18.68H152.992C152.384 18.68 152.16 18.456 152.16 17.928V14.344H153.952V12.072H152.16V9.896H149.424V12.072H148.336V14.344H149.424V17.896ZM155.492 21H158.228V12.072H155.492V21ZM156.868 11.144C157.828 11.144 158.484 10.488 158.484 9.672C158.484 8.84 157.828 8.184 156.868 8.184C155.892 8.184 155.236 8.84 155.236 9.672C155.236 10.488 155.892 11.144 156.868 11.144ZM168.947 16.536C168.947 13.704 166.931 11.944 164.307 11.944C161.699 11.944 159.667 13.704 159.667 16.536C159.667 19.368 161.651 21.128 164.275 21.128C166.899 21.128 168.947 19.368 168.947 16.536ZM162.451 16.536C162.451 15.016 163.315 14.312 164.307 14.312C165.267 14.312 166.163 15.016 166.163 16.536C166.163 18.04 165.251 18.76 164.275 18.76C163.283 18.76 162.451 18.04 162.451 16.536ZM176.558 21H179.278V15.784C179.278 13.384 177.902 11.976 175.838 11.976C174.638 11.976 173.678 12.504 173.134 13.256V12.072H170.398V21H173.134V16.152C173.134 14.936 173.806 14.264 174.846 14.264C175.886 14.264 176.558 14.936 176.558 16.152V21ZM188.428 18.408C188.38 15.08 183.548 16.088 183.548 14.664C183.548 14.232 183.9 13.976 184.54 13.976C185.308 13.976 185.772 14.376 185.852 14.984H188.38C188.204 13.224 186.924 11.944 184.62 11.944C182.284 11.944 180.988 13.192 180.988 14.712C180.988 17.992 185.852 16.952 185.852 18.392C185.852 18.792 185.484 19.112 184.78 19.112C184.028 19.112 183.468 18.696 183.404 18.072H180.7C180.828 19.8 182.428 21.128 184.812 21.128C187.052 21.128 188.428 19.96 188.428 18.408Z" fill="#1C2E6A"/>
</svg>
