<svg width="8" height="6" viewBox="0 0 8 6" fill="none" xmlns="http://www.w3.org/2000/svg">
<path d="M2.06663 0.308767L2.18702 0.43096L3.99811 2.48787L5.8092 0.43096C6.03916 0.167294 6.34916 0.0134213 6.67574 0.000837298C7.00232 -0.0117467 7.32079 0.117909 7.56596 0.363267C7.81112 0.608625 7.96445 0.951129 7.99455 1.32067C8.02465 1.69022 7.92925 2.05885 7.72788 2.35113L7.62029 2.48787L4.90494 5.57323C4.68532 5.82299 4.39324 5.97355 4.08313 5.99683C3.77301 6.02011 3.46602 5.91454 3.21937 5.69979L3.09129 5.57323L0.375935 2.48787C0.154909 2.23728 0.0221136 1.90361 0.00252377 1.54961C-0.017066 1.19561 0.0778998 0.845683 0.269561 0.565635C0.461222 0.285588 0.736371 0.0947206 1.04326 0.0289313C1.35015 -0.036858 1.66762 0.0269645 1.93598 0.208395L2.06663 0.310222V0.308767Z" fill="#1C2E6A"/>
</svg>
