<svg width="22" height="21" viewBox="0 0 22 21" fill="none" xmlns="http://www.w3.org/2000/svg">
<ellipse cx="11" cy="10.5" rx="11" ry="10.5" transform="rotate(-180 11 10.5)" fill="#D9D9D9"/>
<path d="M13.6912 8.23363L13.569 8.38781L11.5121 10.707L13.569 13.0263C13.8327 13.3208 13.9866 13.7177 13.9992 14.1359C14.0117 14.5542 13.8821 14.962 13.6367 15.2759C13.3914 15.5899 13.0489 15.7862 12.6793 15.8248C12.3098 15.8633 11.9411 15.7412 11.6489 15.4833L11.5121 15.3455L8.42677 11.8683C8.17701 11.5871 8.02645 11.213 8.00317 10.8159C7.97989 10.4188 8.08546 10.0257 8.30021 9.7098L8.42677 9.54578L11.5121 6.06857C11.7627 5.78553 12.0964 5.61548 12.4504 5.59039C12.8044 5.5653 13.1543 5.68691 13.4344 5.93235C13.7144 6.17779 13.9053 6.53014 13.9711 6.92313C14.0369 7.31612 13.973 7.72268 13.7916 8.06633L13.6898 8.23363L13.6912 8.23363Z" fill="#1C2E6A"/>
</svg>
