<svg width="22" height="21" viewBox="0 0 22 21" fill="none" xmlns="http://www.w3.org/2000/svg">
<ellipse cx="11" cy="10.5" rx="11" ry="10.5" fill="#D9D9D9"/>
<path d="M8.30877 13.1851L8.43096 13.0309L10.4879 10.7117L8.43096 8.39242C8.16729 8.09794 8.01342 7.70097 8.00084 7.28275C7.98825 6.86454 8.11791 6.45672 8.36327 6.14276C8.60862 5.82881 8.95113 5.63246 9.32067 5.59392C9.69022 5.55537 10.0589 5.67754 10.3511 5.93541L10.4879 6.07319L13.5732 9.5504C13.823 9.83163 13.9735 10.2057 13.9968 10.6028C14.0201 10.9999 13.9145 11.393 13.6998 11.7089L13.5732 11.8729L10.4879 15.3501C10.2373 15.6332 9.90361 15.8032 9.54961 15.8283C9.19561 15.8534 8.84568 15.7318 8.56564 15.4863C8.28559 15.2409 8.09472 14.8886 8.02893 14.4956C7.96314 14.1026 8.02696 13.696 8.20839 13.3524L8.31022 13.1851L8.30877 13.1851Z" fill="#1C2E6A"/>
</svg>
